<svg width="184" height="57" viewBox="0 0 184 57" fill="none" xmlns="http://www.w3.org/2000/svg">
<mask id="path-1-inside-1_126_39836" fill="white">
<path fill-rule="evenodd" clip-rule="evenodd" d="M0 56.998V12.9979L0.000128626 12.998L10.9308 0.998047H184V43.998L172.158 56.998H0Z"/>
</mask>
<path fill-rule="evenodd" clip-rule="evenodd" d="M0 56.998V12.9979L0.000128626 12.998L10.9308 0.998047H184V43.998L172.158 56.998H0Z" fill="black"/>
<path d="M0 12.9979L2.16051 10.9165L-3 5.55988L-3 12.9979H0ZM0 56.998H-3V59.998H0V56.998ZM0.000128626 12.998L-2.16038 15.0794L0.0614537 17.3857L2.21796 15.0183L0.000128626 12.998ZM10.9308 0.998047V-2.00195H9.60548L8.71299 -1.02216L10.9308 0.998047ZM184 0.998047H187V-2.00195H184V0.998047ZM184 43.998L186.218 46.0183L187 45.1596V43.998H184ZM172.158 56.998V59.998H173.484L174.376 59.0183L172.158 56.998ZM-3 12.9979V56.998H3V12.9979H-3ZM2.16063 10.9166L2.16051 10.9165L-2.16051 15.0793L-2.16038 15.0794L2.16063 10.9166ZM8.71299 -1.02216L-2.2177 10.9778L2.21796 15.0183L13.1487 3.01825L8.71299 -1.02216ZM184 -2.00195H10.9308V3.99805H184V-2.00195ZM187 43.998V0.998047H181V43.998H187ZM174.376 59.0183L186.218 46.0183L181.782 41.9778L169.941 54.9778L174.376 59.0183ZM0 59.998H172.158V53.998H0V59.998Z" fill="white" fill-opacity="0.6" mask="url(#path-1-inside-1_126_39836)"/>
</svg>
