<svg width="1174" height="380" viewBox="0 0 1174 380" fill="none" xmlns="http://www.w3.org/2000/svg">
<g filter="url(#filter0_d_133_40007)">
<path fill-rule="evenodd" clip-rule="evenodd" d="M5 121.765L2 119.074V378H5V121.765ZM10 126.309L7 123.605V378H10V126.309ZM12 128.125L15 130.822V378H12V128.125ZM20 135.356L17 132.641V378H20V135.356Z" fill="url(#paint0_linear_133_40007)"/>
<mask id="path-2-inside-1_133_40007" fill="white">
<path fill-rule="evenodd" clip-rule="evenodd" d="M2 25.2455L1.99999 115L19 130.424V378L1130 378L1172 336V2H25.2455L2 25.2455Z"/>
</mask>
<path fill-rule="evenodd" clip-rule="evenodd" d="M2 25.2455L1.99999 115L19 130.424V378L1130 378L1172 336V2H25.2455L2 25.2455Z" fill="black"/>
<path d="M1.99999 115H-1.00001L-1.00001 116.329L-0.0158095 117.222L1.99999 115ZM2 25.2455L-0.121323 23.1242L-1 24.0029L-1 25.2455H2ZM19 130.424H22V129.095L21.0158 128.202L19 130.424ZM19 378H16V381H19V378ZM1130 378V381H1131.24L1132.12 380.121L1130 378ZM1172 336L1174.12 338.121L1175 337.243V336H1172ZM1172 2H1175V-1H1172V2ZM25.2455 2V-1H24.0029L23.1242 -0.12132L25.2455 2ZM4.99999 115L5 25.2455H-1L-1.00001 115H4.99999ZM21.0158 128.202L4.01579 112.778L-0.0158095 117.222L16.9842 132.645L21.0158 128.202ZM22 378V130.424H16V378H22ZM1130 375L19 375V381L1130 381V375ZM1169.88 333.879L1127.88 375.879L1132.12 380.121L1174.12 338.121L1169.88 333.879ZM1169 2V336H1175V2H1169ZM25.2455 5H1172V-1H25.2455V5ZM23.1242 -0.12132L-0.121323 23.1242L4.12132 27.3668L27.3668 4.12132L23.1242 -0.12132Z" fill="url(#paint1_radial_133_40007)" mask="url(#path-2-inside-1_133_40007)"/>
<path d="M1.99999 115H-1.00001L-1.00001 116.329L-0.0158095 117.222L1.99999 115ZM2 25.2455L-0.121323 23.1242L-1 24.0029L-1 25.2455H2ZM19 130.424H22V129.095L21.0158 128.202L19 130.424ZM19 378H16V381H19V378ZM1130 378V381H1131.24L1132.12 380.121L1130 378ZM1172 336L1174.12 338.121L1175 337.243V336H1172ZM1172 2H1175V-1H1172V2ZM25.2455 2V-1H24.0029L23.1242 -0.12132L25.2455 2ZM4.99999 115L5 25.2455H-1L-1.00001 115H4.99999ZM21.0158 128.202L4.01579 112.778L-0.0158095 117.222L16.9842 132.645L21.0158 128.202ZM22 378V130.424H16V378H22ZM1130 375L19 375V381L1130 381V375ZM1169.88 333.879L1127.88 375.879L1132.12 380.121L1174.12 338.121L1169.88 333.879ZM1169 2V336H1175V2H1169ZM25.2455 5H1172V-1H25.2455V5ZM23.1242 -0.12132L-0.121323 23.1242L4.12132 27.3668L27.3668 4.12132L23.1242 -0.12132Z" fill="url(#paint2_radial_133_40007)" mask="url(#path-2-inside-1_133_40007)"/>
<path d="M2 2H21L2 21V2Z" fill="white" fill-opacity="0.3"/>
</g>
<defs>
<filter id="filter0_d_133_40007" x="0" y="0" width="1174" height="380" filterUnits="userSpaceOnUse" color-interpolation-filters="sRGB">
<feFlood flood-opacity="0" result="BackgroundImageFix"/>
<feColorMatrix in="SourceAlpha" type="matrix" values="0 0 0 0 0 0 0 0 0 0 0 0 0 0 0 0 0 0 127 0" result="hardAlpha"/>
<feOffset/>
<feGaussianBlur stdDeviation="1"/>
<feComposite in2="hardAlpha" operator="out"/>
<feColorMatrix type="matrix" values="0 0 0 0 1 0 0 0 0 1 0 0 0 0 1 0 0 0 0.5 0"/>
<feBlend mode="normal" in2="BackgroundImageFix" result="effect1_dropShadow_133_40007"/>
<feBlend mode="normal" in="SourceGraphic" in2="effect1_dropShadow_133_40007" result="shape"/>
</filter>
<linearGradient id="paint0_linear_133_40007" x1="20" y1="329" x2="2" y2="329" gradientUnits="userSpaceOnUse">
<stop/>
<stop offset="1" stop-color="white"/>
</linearGradient>
<radialGradient id="paint1_radial_133_40007" cx="0" cy="0" r="1" gradientUnits="userSpaceOnUse" gradientTransform="translate(2 2) rotate(22.6388) scale(698.846 1675.67)">
<stop stop-color="white"/>
<stop offset="1" stop-color="white" stop-opacity="0"/>
</radialGradient>
<radialGradient id="paint2_radial_133_40007" cx="0" cy="0" r="1" gradientUnits="userSpaceOnUse" gradientTransform="translate(1292 552) rotate(-156.909) scale(701.178 1644.58)">
<stop stop-color="white"/>
<stop offset="1" stop-color="white" stop-opacity="0"/>
</radialGradient>
</defs>
</svg>
